<svg width="530" height="530" viewBox="0 0 530 530" fill="none" xmlns="http://www.w3.org/2000/svg">
<path d="M529.894 264.518C529.674 145.919 451.457 45.5869 343.794 12.1183C335.507 9.54375 327.047 7.36155 318.417 5.59618C291.961 0.177451 264.744 -1.2937 238.019 1.59956C229.118 2.50677 220.365 3.85532 211.734 5.59618C91.1245 30.2869 0.379248 136.945 0.256653 264.788C0.477325 383.387 78.6933 483.719 186.357 517.188C194.644 519.762 203.103 521.944 211.734 523.71C238.19 529.128 265.406 530.599 292.132 527.731C301.033 526.824 309.786 525.475 318.417 523.734C439.026 499.043 529.796 392.385 529.894 264.518ZM349.066 498.921C340.312 502.059 331.338 504.707 322.168 506.865C303.656 510.984 284.286 513.436 265.063 513.436C255.231 513.436 245.546 512.872 236.008 511.769C208.007 508.532 180.791 500.441 155.512 488.132C147.249 484.087 139.231 479.575 131.532 474.671C62.1429 430.537 16.047 353.057 15.8753 264.788C15.9734 156.781 84.8476 64.8344 181.061 30.385C189.814 27.2466 198.788 24.5985 207.958 22.4408C226.47 18.3216 245.84 15.8697 265.063 15.8697C274.895 15.8697 284.58 16.4336 294.118 17.537C322.119 20.7735 349.335 28.8648 374.615 41.1734C382.878 45.2191 390.895 49.7306 398.594 54.6344C467.983 98.7688 514.079 176.249 514.251 264.518C514.153 372.549 445.279 464.496 349.066 498.921Z" fill="#FA1F26"/>
<path d="M411.074 82.7578C404.405 77.4127 397.442 72.4353 390.209 67.8257C323.345 24.4514 233.85 19.7927 162.426 55.2229C154.678 59.0233 147.175 63.2406 139.942 67.8257C74.9173 109.165 31.7146 181.791 31.543 264.518C31.6166 338.149 65.7717 403.811 119.101 446.548C125.77 451.893 132.733 456.871 139.967 461.48C206.83 504.854 296.325 509.513 367.749 474.083C375.497 470.283 383 466.065 390.233 461.48C455.258 420.141 498.461 347.515 498.632 264.788C498.559 191.181 464.404 125.519 411.074 82.7578ZM381.823 448.289C375.08 452.58 368.068 456.503 360.859 460.034C331.387 474.696 298.286 482.297 265.088 482.15C256.506 482.15 248.022 481.659 239.686 480.679C199.45 476.143 160.219 459.96 128.859 434.337C122.632 429.36 116.698 424.039 111.058 418.4C71.6808 379.071 47.2843 324.762 47.1372 264.763C47.2352 187.479 87.5692 119.61 148.303 80.9925C155.046 76.7016 162.058 72.7785 169.267 69.2478C198.739 54.5854 231.84 46.9844 265.039 47.1315C273.62 47.1315 282.104 47.6219 290.44 48.6027C330.676 53.1387 369.907 69.3214 401.267 94.9438C407.495 99.9212 413.428 105.242 419.068 110.881C458.445 150.21 482.842 204.52 482.989 264.518C482.891 341.827 442.557 409.671 381.823 448.289Z" fill="#FA1F26"/>
<path d="M425.124 141.334C419.828 134.518 414.115 128.02 408.034 121.939C345.903 57.307 239.49 44.3119 163.064 90.3833C155.585 94.7722 148.401 99.6025 141.56 104.874C93.797 141.751 63.001 199.542 62.8294 264.543H62.8049C62.8784 311.055 78.6197 353.866 105.051 387.996C110.347 394.813 116.06 401.31 122.141 407.391C184.248 472.023 290.661 485.018 367.112 438.972C374.59 434.583 381.774 429.752 388.615 424.481C436.378 387.604 467.174 329.812 467.346 264.812H467.37C467.297 218.3 451.556 175.465 425.124 141.334ZM396.976 396.333C391.337 401.948 385.354 407.219 379.052 412.074C346.565 437.182 306.108 450.912 265.088 450.912C256.506 450.912 248.047 450.324 239.784 449.221C199.695 443.826 161.69 424.947 133.199 396.333C127.56 390.718 122.313 384.735 117.433 378.434C93.1105 347 78.5707 307.598 78.4481 264.812C78.5216 213.322 99.4365 166.736 133.199 133.022C138.839 127.407 144.821 122.136 151.123 117.281C183.611 92.1732 224.067 78.4425 265.088 78.4425C273.669 78.4425 282.128 79.0309 290.391 80.1343C330.48 85.5285 368.485 104.408 396.976 133.022C402.615 138.637 407.862 144.62 412.742 150.921C437.065 182.354 451.605 221.757 451.727 264.543C451.654 316.008 430.739 362.595 396.976 396.333Z" fill="#FA1F26"/>
<path d="M416.91 186.327C412.84 178.505 408.181 171.027 403.008 163.965C350.806 88.9611 236.547 71.3074 164.167 127.015C157.105 132.188 150.436 137.901 144.257 144.056C113.388 174.901 94.2384 217.466 94.0913 264.518H94.0668C94.1158 292.813 101.03 319.49 113.241 343.004C117.311 350.825 121.97 358.304 127.143 365.365C179.344 440.369 293.603 458.023 365.984 402.315C373.045 397.142 379.714 391.429 385.893 385.275C416.763 354.43 435.912 311.864 436.059 264.812H436.084C436.035 236.493 429.121 209.816 416.91 186.327ZM390.38 356.146C385.673 362.57 380.475 368.602 374.86 374.217C346.319 402.879 305.863 420.043 265.088 419.651C256.506 419.651 248.096 418.964 239.906 417.615C200.186 411.191 163.407 388.634 139.77 356.146C135.063 349.722 130.821 342.93 127.119 335.82C116.06 314.562 109.784 290.41 109.71 264.788C109.759 230.51 120.915 198.831 139.77 173.16C144.478 166.736 149.676 160.704 155.291 155.089C183.831 126.426 224.288 109.263 265.063 109.655C273.645 109.655 282.055 110.342 290.244 111.69C329.965 118.114 366.744 140.672 390.38 173.16C395.088 179.584 399.33 186.376 403.032 193.486C414.09 214.744 420.367 238.896 420.441 264.518C420.392 298.796 409.235 330.474 390.38 356.146Z" fill="#FA1F26"/>
<path d="M389.154 200.695C385.82 194.295 382.019 188.19 377.777 182.428C351.567 146.091 307.187 124.269 262.562 125.249C226.764 125.985 191.702 140.696 166.374 166.196C161.323 171.247 156.64 176.666 152.398 182.428C135.504 205.451 125.476 233.82 125.353 264.543H125.329C125.378 287.664 131.017 309.462 140.996 328.636C144.331 335.035 148.131 341.14 152.373 346.902C178.584 383.24 222.964 405.062 267.589 404.081C303.387 403.345 338.449 388.634 363.753 363.134C368.803 358.083 373.487 352.664 377.728 346.902C394.622 323.879 404.65 295.51 404.773 264.788H404.798C404.773 241.691 399.109 219.893 389.154 200.695ZM367.896 333.76C363.434 340.331 358.358 346.485 352.743 352.076C329.671 375.148 297.796 388.634 265.088 388.364C256.53 388.364 248.169 387.506 240.103 385.839C208.767 379.317 180.08 360.437 162.254 333.736C157.792 327.164 153.942 320.127 150.804 312.698C144.552 297.962 141.045 281.755 140.972 264.763C141.021 239.116 148.867 215.284 162.254 195.521C166.717 188.95 171.792 182.796 177.407 177.205C200.48 154.133 232.355 140.647 265.063 140.917C273.62 140.917 281.981 141.775 290.048 143.443C321.384 149.965 350.071 168.844 367.896 195.546C372.359 202.117 376.208 209.154 379.347 216.583C385.599 231.319 389.105 247.526 389.179 264.518C389.13 290.19 381.284 313.998 367.896 333.76Z" fill="#FA1F26"/>
<path d="M364.954 222.664C362.208 216.191 358.849 210.037 354.95 204.299C338.326 179.657 312.336 162.739 282.423 157.835C247.605 152.196 212.543 163.72 188.49 188.288C183.586 193.192 179.148 198.537 175.25 204.299C163.603 221.487 156.762 242.23 156.64 264.543H156.615C156.664 279.499 159.704 293.72 165.221 306.666C167.967 313.139 171.326 319.294 175.225 325.031C191.849 349.673 217.839 366.591 247.753 371.495C282.57 377.134 317.632 365.61 341.685 341.042C346.589 336.138 351.027 330.793 354.926 325.031C366.572 307.843 373.413 287.1 373.536 264.788H373.56C373.511 249.856 370.446 235.61 364.954 222.664ZM345.143 311.251C341.121 318.117 336.218 324.394 330.627 329.984C313.464 346.976 289.435 357.519 265.088 357.102C256.555 357.102 248.292 355.95 240.446 353.792C217.349 347.442 196.998 331.995 185.008 311.251C180.987 304.386 177.8 296.981 175.617 289.135C173.46 281.387 172.307 273.222 172.258 264.788C172.307 247.747 176.941 231.785 185.008 218.054C189.029 211.189 193.933 204.912 199.523 199.322C216.687 182.33 240.716 171.787 265.063 172.204C273.596 172.204 281.859 173.356 289.705 175.514C312.802 181.864 333.153 197.311 345.143 218.054C349.164 224.92 352.351 232.324 354.533 240.171C356.691 247.919 357.843 256.083 357.892 264.518C357.868 281.583 353.209 297.545 345.143 311.251Z" fill="#FA1F26"/>
<path d="M339.454 244.339C337.64 237.817 334.992 231.662 331.657 225.949C322.634 210.306 308.168 198.537 291.004 192.162C263.298 182.109 231.178 189.465 210.606 210.404C205.947 215.038 201.877 220.261 198.543 225.974C191.824 237.375 187.975 250.64 187.926 264.812H187.95C187.999 271.8 188.98 278.567 190.77 284.991C192.585 291.514 195.233 297.668 198.567 303.381C207.59 319.024 222.057 330.793 239.22 337.168C266.927 347.221 299.047 339.865 319.618 318.926C324.277 314.292 328.347 309.069 331.682 303.356C338.4 291.955 342.249 278.69 342.298 264.518H342.274C342.2 257.53 341.244 250.763 339.454 244.339ZM318.122 295.461C315.45 299.997 312.213 304.165 308.511 307.868C297.036 319.269 281.344 325.889 265.088 325.816C259.424 325.816 253.956 325.056 248.758 323.634C233.286 319.514 220.291 308.971 212.028 295.486C209.356 290.95 207.247 286.046 205.8 280.848C204.378 275.748 203.594 270.378 203.545 264.812C203.594 253.509 206.683 242.941 212.028 233.869C214.701 229.333 217.937 225.165 221.64 221.462C233.115 210.061 248.807 203.441 265.063 203.514C270.727 203.514 276.195 204.275 281.393 205.697C296.864 209.816 309.86 220.359 318.122 233.845C320.795 238.381 322.904 243.284 324.35 248.482C325.772 253.582 326.557 258.952 326.606 264.518C326.557 275.821 323.468 286.389 318.122 295.461Z" fill="#FA1F26"/>
<path d="M307.31 247.036C304.98 241.568 301.597 236.664 297.453 232.545C280.682 214.499 249.542 214.989 232.722 232.545C228.579 236.664 225.22 241.593 222.866 247.06C220.561 252.455 219.261 258.364 219.188 264.567H219.163C219.212 270.868 220.512 276.876 222.841 282.343C225.17 287.811 228.554 292.715 232.698 296.834C249.469 314.88 280.608 314.39 297.428 296.834C301.572 292.715 304.931 287.787 307.285 282.319C309.59 276.925 310.889 271.016 310.963 264.812H310.987C310.963 258.486 309.639 252.479 307.31 247.036ZM286.395 285.752C280.927 291.17 273.4 294.529 265.088 294.529C256.751 294.529 249.224 291.17 243.756 285.752C238.337 280.382 234.954 273.002 234.806 264.788C234.88 256.476 238.288 248.973 243.756 243.554C249.224 238.135 256.751 234.776 265.063 234.776C273.4 234.776 280.927 238.135 286.395 243.554C291.813 248.924 295.197 256.304 295.344 264.518C295.271 272.83 291.862 280.333 286.395 285.752Z" fill="#FA1F26"/>
</svg>
