<svg width="553" height="276" viewBox="0 0 553 276" fill="none" xmlns="http://www.w3.org/2000/svg">
<path d="M276.485 259.668C419.944 259.668 536.285 143.416 536.417 0.000976562H552.749C552.616 152.433 428.96 276.001 276.484 276.001C123.984 276.001 0.35199 152.433 0.218994 0.000976562H16.53C16.663 143.416 133.004 259.668 276.485 259.668Z" fill="#E4E3DD"/>
<path d="M276.485 227.046C401.931 227.046 503.641 125.425 503.796 0.000976562H520.106C519.974 134.42 410.948 243.357 276.484 243.357C141.998 243.357 32.9731 134.42 32.8401 0.000976562H49.1511C49.3061 125.425 151.016 227.046 276.485 227.046Z" fill="#E4E3DD"/>
<path d="M276.485 194.425C383.919 194.425 471.02 107.413 471.174 0.000976562H487.485C487.33 116.43 392.936 210.736 276.485 210.736C160.034 210.736 65.6172 116.43 65.4622 0.000976562H81.7732C81.9282 107.413 169.028 194.425 276.485 194.425Z" fill="#E4E3DD"/>
<path d="M276.485 161.806C319.422 161.806 360.604 144.768 390.99 114.432C421.376 84.0966 438.482 42.9426 438.552 0.00598145H454.863C454.708 98.401 374.901 178.12 276.485 178.12C229.22 178.12 183.887 159.364 150.438 125.969C116.99 92.5743 98.161 47.271 98.0852 0.00598145H114.396C114.468 42.946 131.577 84.1025 161.968 114.439C192.358 144.775 233.545 161.811 276.485 161.806Z" fill="#E4E3DD"/>
<path d="M276.484 129.182C310.768 129.176 343.65 115.573 367.917 91.3553C392.184 67.1378 405.855 34.2838 405.931 0H422.242C422.141 38.5941 406.738 75.5728 379.412 102.827C352.086 130.082 315.068 145.387 276.473 145.387C237.879 145.387 200.86 130.082 173.534 102.827C146.208 75.5728 130.806 38.5941 130.705 0H147.016C147.093 34.2871 160.767 67.1437 185.038 91.3616C209.31 115.579 242.196 129.181 276.484 129.182Z" fill="#E4E3DD"/>
<path d="M276.484 96.561C302.116 96.5569 326.702 86.3908 344.852 68.2908C363.002 50.1908 373.235 25.6334 373.31 0.000976562H389.621C389.532 29.9513 377.572 58.6446 356.362 79.7913C335.152 100.938 306.424 112.812 276.473 112.812C246.523 112.812 217.794 100.938 196.585 79.7913C175.375 58.6446 163.415 29.9513 163.326 0.000976562H179.638C179.714 25.6365 189.95 50.1963 208.104 68.2966C226.258 86.397 250.848 96.5611 276.484 96.561Z" fill="#E4E3DD"/>
<path d="M276.485 63.9178C293.462 63.919 309.747 57.1939 321.776 45.2145C333.805 33.235 340.598 16.9773 340.667 0.000854492H357C356.925 21.3055 348.409 41.712 333.318 56.7501C318.226 71.7883 297.79 80.2323 276.486 80.2323C255.181 80.2323 234.744 71.7883 219.653 56.7501C204.562 41.712 196.046 21.3055 195.971 0.000854492H212.281C212.351 16.9808 219.147 33.2412 231.181 45.2211C243.215 57.2009 259.505 63.9238 276.485 63.9178Z" fill="#E4E3DD"/>
<path d="M276.485 31.296C284.81 31.2987 292.799 28.0107 298.711 22.1488C304.623 16.2869 307.978 8.32615 308.046 0.00109863H324.357C324.275 12.6466 319.195 24.7461 310.224 33.6591C301.253 42.572 289.121 47.5746 276.475 47.5746C263.829 47.5746 251.697 42.572 242.726 33.6591C233.756 24.7461 228.675 12.6466 228.593 0.00109863H244.904C244.973 8.32929 248.331 16.2924 254.247 22.1547C260.163 28.0169 268.157 31.3029 276.485 31.296Z" fill="#E4E3DD"/>
</svg>
