<svg width="16" height="13" viewBox="0 0 16 13" fill="none" xmlns="http://www.w3.org/2000/svg">
<path d="M0.782547 7.82506C0.551547 7.60606 0.435547 7.35006 0.435547 7.05406C0.435547 6.75906 0.547547 6.50206 0.772547 6.28406C0.997547 6.06606 1.25355 5.95706 1.54255 5.95706C1.83155 5.95706 2.08455 6.06606 2.30255 6.28406L5.59455 9.34506L13.6975 1.24106C13.9155 1.02306 14.1695 0.914062 14.4585 0.914062C14.7465 0.914062 15.0035 1.02306 15.2285 1.24106C15.4535 1.45906 15.5655 1.71606 15.5655 2.01106C15.5655 2.30606 15.4505 2.56306 15.2185 2.78106L5.59455 12.3101L0.782547 7.82506Z" fill="#E4E3DD"/>
</svg>
