<svg width="85" height="58" viewBox="0 0 85 58" fill="none" xmlns="http://www.w3.org/2000/svg">
<path d="M56.863 56.133C71.9299 56.133 84.144 43.9189 84.144 28.852C84.144 13.7851 71.9299 1.57098 56.863 1.57098C41.7962 1.57098 29.582 13.7851 29.582 28.852C29.582 43.9189 41.7962 56.133 56.863 56.133Z" fill="#333333" stroke="white" stroke-width="0.25" stroke-miterlimit="10"/>
<path d="M56.863 54.83C71.2103 54.83 82.841 43.1992 82.841 28.852C82.841 14.5047 71.2103 2.87399 56.863 2.87399C42.5158 2.87399 30.885 14.5047 30.885 28.852C30.885 43.1992 42.5158 54.83 56.863 54.83Z" fill="#333333" stroke="white" stroke-width="0.25" stroke-miterlimit="10"/>
<path d="M56.862 53.526C70.4896 53.526 81.537 42.4786 81.537 28.851C81.537 15.2234 70.4896 4.17598 56.862 4.17598C43.2344 4.17598 32.187 15.2234 32.187 28.851C32.187 42.4786 43.2344 53.526 56.862 53.526Z" fill="#333333" stroke="white" stroke-width="0.25" stroke-miterlimit="10"/>
<path d="M56.8631 52.225C69.7716 52.225 80.236 41.7605 80.236 28.852C80.236 15.9434 69.7716 5.47898 56.8631 5.47898C43.9545 5.47898 33.4901 15.9434 33.4901 28.852C33.4901 41.7605 43.9545 52.225 56.8631 52.225Z" fill="#333333" stroke="white" stroke-width="0.25" stroke-miterlimit="10"/>
<path d="M56.863 50.922C69.052 50.922 78.933 41.0409 78.933 28.852C78.933 16.6631 69.052 6.78198 56.863 6.78198C44.6741 6.78198 34.793 16.6631 34.793 28.852C34.793 41.0409 44.6741 50.922 56.863 50.922Z" fill="#333333" stroke="white" stroke-width="0.25" stroke-miterlimit="10"/>
<path d="M56.862 49.618C68.3313 49.618 77.629 40.3203 77.629 28.851C77.629 17.3817 68.3313 8.08398 56.862 8.08398C45.3927 8.08398 36.095 17.3817 36.095 28.851C36.095 40.3203 45.3927 49.618 56.862 49.618Z" fill="#333333" stroke="white" stroke-width="0.25" stroke-miterlimit="10"/>
<path d="M56.863 48.317C67.6132 48.317 76.328 39.6022 76.328 28.852C76.328 18.1018 67.6132 9.38699 56.863 9.38699C46.1128 9.38699 37.398 18.1018 37.398 28.852C37.398 39.6022 46.1128 48.317 56.863 48.317Z" fill="#333333" stroke="white" stroke-width="0.25" stroke-miterlimit="10"/>
<path d="M56.8631 47.014C66.8936 47.014 75.0251 38.8826 75.0251 28.852C75.0251 18.8214 66.8936 10.69 56.8631 10.69C46.8325 10.69 38.701 18.8214 38.701 28.852C38.701 38.8826 46.8325 47.014 56.8631 47.014Z" fill="#333333" stroke="white" stroke-width="0.25" stroke-miterlimit="10"/>
<path d="M56.8621 45.71C66.173 45.71 73.7211 38.1619 73.7211 28.851C73.7211 19.54 66.173 11.992 56.8621 11.992C47.5511 11.992 40.0031 19.54 40.0031 28.851C40.0031 38.1619 47.5511 45.71 56.8621 45.71Z" fill="#333333" stroke="white" stroke-width="0.25" stroke-miterlimit="10"/>
<path d="M56.863 44.409C65.4549 44.409 72.42 37.4439 72.42 28.852C72.42 20.2601 65.4549 13.295 56.863 13.295C48.2711 13.295 41.306 20.2601 41.306 28.852C41.306 37.4439 48.2711 44.409 56.863 44.409Z" fill="#333333" stroke="white" stroke-width="0.25" stroke-miterlimit="10"/>
<path d="M56.863 43.105C64.7353 43.105 71.117 36.7233 71.117 28.851C71.117 20.9787 64.7353 14.597 56.863 14.597C48.9907 14.597 42.609 20.9787 42.609 28.851C42.609 36.7233 48.9907 43.105 56.863 43.105Z" fill="#333333" stroke="white" stroke-width="0.25" stroke-miterlimit="10"/>
<path d="M56.862 41.802C64.0147 41.802 69.813 36.0036 69.813 28.851C69.813 21.6983 64.0147 15.9 56.862 15.9C49.7094 15.9 43.911 21.6983 43.911 28.851C43.911 36.0036 49.7094 41.802 56.862 41.802Z" fill="#333333" stroke="white" stroke-width="0.25" stroke-miterlimit="10"/>
<path d="M56.8631 40.501C63.2966 40.501 68.5121 35.2855 68.5121 28.852C68.5121 22.4184 63.2966 17.203 56.8631 17.203C50.4295 17.203 45.2141 22.4184 45.2141 28.852C45.2141 35.2855 50.4295 40.501 56.8631 40.501Z" fill="#333333" stroke="white" stroke-width="0.25" stroke-miterlimit="10"/>
<path d="M56.8621 39.197C62.576 39.197 67.2081 34.5649 67.2081 28.851C67.2081 23.137 62.576 18.505 56.8621 18.505C51.1481 18.505 46.5161 23.137 46.5161 28.851C46.5161 34.5649 51.1481 39.197 56.8621 39.197Z" fill="#333333" stroke="white" stroke-width="0.25" stroke-miterlimit="10"/>
<path d="M56.863 37.896C61.8579 37.896 65.907 33.8468 65.907 28.852C65.907 23.8571 61.8579 19.808 56.863 19.808C51.8682 19.808 47.819 23.8571 47.819 28.852C47.819 33.8468 51.8682 37.896 56.863 37.896Z" fill="#333333" stroke="white" stroke-width="0.25" stroke-miterlimit="10"/>
<path d="M56.863 36.593C61.1382 36.593 64.604 33.1272 64.604 28.852C64.604 24.5767 61.1382 21.111 56.863 21.111C52.5878 21.111 49.122 24.5767 49.122 28.852C49.122 33.1272 52.5878 36.593 56.863 36.593Z" fill="#333333" stroke="white" stroke-width="0.25" stroke-miterlimit="10"/>
<path d="M56.862 35.289C60.4176 35.289 63.3 32.4066 63.3 28.851C63.3 25.2954 60.4176 22.413 56.862 22.413C53.3064 22.413 50.424 25.2954 50.424 28.851C50.424 32.4066 53.3064 35.289 56.862 35.289Z" fill="#333333" stroke="white" stroke-width="0.25" stroke-miterlimit="10"/>
<path d="M56.87 35.386C60.4748 35.386 63.397 32.4637 63.397 28.859C63.397 25.2542 60.4748 22.332 56.87 22.332C53.2653 22.332 50.343 25.2542 50.343 28.859C50.343 32.4637 53.2653 35.386 56.87 35.386Z" fill="#404040" stroke="#EFEFEF" stroke-width="0.266" stroke-miterlimit="10"/>
<path d="M56.877 35.482C60.531 35.482 63.493 32.5199 63.493 28.866C63.493 25.2121 60.531 22.25 56.877 22.25C53.2231 22.25 50.261 25.2121 50.261 28.866C50.261 32.5199 53.2231 35.482 56.877 35.482Z" fill="#4D4D4D" stroke="#DFDFDF" stroke-width="0.281" stroke-miterlimit="10"/>
<path d="M56.883 35.576C60.5855 35.576 63.587 32.5745 63.587 28.872C63.587 25.1695 60.5855 22.168 56.883 22.168C53.1805 22.168 50.179 25.1695 50.179 28.872C50.179 32.5745 53.1805 35.576 56.883 35.576Z" fill="#595959" stroke="#CFCFCF" stroke-width="0.297" stroke-miterlimit="10"/>
<path d="M56.89 35.672C60.6417 35.672 63.683 32.6307 63.683 28.879C63.683 25.1273 60.6417 22.086 56.89 22.086C53.1384 22.086 50.097 25.1273 50.097 28.879C50.097 32.6307 53.1384 35.672 56.89 35.672Z" fill="#666666" stroke="#BFBFBF" stroke-width="0.313" stroke-miterlimit="10"/>
<path d="M56.897 35.768C60.6978 35.768 63.779 32.6868 63.779 28.886C63.779 25.0852 60.6978 22.004 56.897 22.004C53.0962 22.004 50.015 25.0852 50.015 28.886C50.015 32.6868 53.0962 35.768 56.897 35.768Z" fill="#737373" stroke="#AFAFAF" stroke-width="0.328" stroke-miterlimit="10"/>
<path d="M56.903 35.862C60.7525 35.862 63.873 32.7414 63.873 28.892C63.873 25.0426 60.7525 21.922 56.903 21.922C53.0536 21.922 49.933 25.0426 49.933 28.892C49.933 32.7414 53.0536 35.862 56.903 35.862Z" fill="#808080" stroke="#9F9F9F" stroke-width="0.344" stroke-miterlimit="10"/>
<path d="M56.9111 35.959C60.8096 35.959 63.9701 32.7986 63.9701 28.9C63.9701 25.0014 60.8096 21.841 56.9111 21.841C53.0125 21.841 49.8521 25.0014 49.8521 28.9C49.8521 32.7986 53.0125 35.959 56.9111 35.959Z" fill="#8C8C8C" stroke="#8F8F8F" stroke-width="0.359" stroke-miterlimit="10"/>
<path d="M56.918 36.055C60.8658 36.055 64.066 32.8547 64.066 28.907C64.066 24.9593 60.8658 21.759 56.918 21.759C52.9703 21.759 49.77 24.9593 49.77 28.907C49.77 32.8547 52.9703 36.055 56.918 36.055Z" fill="#999999" stroke="#808080" stroke-width="0.375" stroke-miterlimit="10"/>
<path d="M56.924 36.149C60.9204 36.149 64.16 32.9093 64.16 28.913C64.16 24.9167 60.9204 21.677 56.924 21.677C52.9277 21.677 49.688 24.9167 49.688 28.913C49.688 32.9093 52.9277 36.149 56.924 36.149Z" fill="#A6A6A6" stroke="#333333" stroke-width="0.391" stroke-miterlimit="10"/>
<path d="M56.931 36.245C60.9765 36.245 64.256 32.9655 64.256 28.92C64.256 24.8745 60.9765 21.595 56.931 21.595C52.8855 21.595 49.606 24.8745 49.606 28.92C49.606 32.9655 52.8855 36.245 56.931 36.245Z" fill="#B3B3B3" stroke="#606060" stroke-width="0.406" stroke-miterlimit="10"/>
<path d="M56.938 36.341C61.0327 36.341 64.352 33.0216 64.352 28.927C64.352 24.8323 61.0327 21.513 56.938 21.513C52.8434 21.513 49.524 24.8323 49.524 28.927C49.524 33.0216 52.8434 36.341 56.938 36.341Z" fill="#BFBFBF" stroke="#505050" stroke-width="0.422" stroke-miterlimit="10"/>
<path d="M56.944 36.435C61.0873 36.435 64.446 33.0762 64.446 28.933C64.446 24.7897 61.0873 21.431 56.944 21.431C52.8008 21.431 49.442 24.7897 49.442 28.933C49.442 33.0762 52.8008 36.435 56.944 36.435Z" fill="#CCCCCC" stroke="#404040" stroke-width="0.438" stroke-miterlimit="10"/>
<path d="M56.951 36.531C61.1434 36.531 64.542 33.1324 64.542 28.94C64.542 24.7476 61.1434 21.349 56.951 21.349C52.7587 21.349 49.36 24.7476 49.36 28.94C49.36 33.1324 52.7587 36.531 56.951 36.531Z" fill="#D9D9D9" stroke="#303030" stroke-width="0.453" stroke-miterlimit="10"/>
<path d="M56.9581 36.626C61.199 36.626 64.6371 33.188 64.6371 28.947C64.6371 24.706 61.199 21.268 56.9581 21.268C52.7171 21.268 49.2791 24.706 49.2791 28.947C49.2791 33.188 52.7171 36.626 56.9581 36.626Z" fill="#E6E6E6" stroke="#202020" stroke-width="0.469" stroke-miterlimit="10"/>
<path d="M56.965 36.722C61.2552 36.722 64.733 33.2441 64.733 28.954C64.733 24.6638 61.2552 21.186 56.965 21.186C52.6749 21.186 49.197 24.6638 49.197 28.954C49.197 33.2441 52.6749 36.722 56.965 36.722Z" fill="#F2F2F2" stroke="#101010" stroke-width="0.484" stroke-miterlimit="10"/>
<path d="M56.9721 36.818C61.3114 36.818 64.8291 33.3003 64.8291 28.961C64.8291 24.6217 61.3114 21.104 56.9721 21.104C52.6328 21.104 49.1151 24.6217 49.1151 28.961C49.1151 33.3003 52.6328 36.818 56.9721 36.818Z" fill="white" stroke="black" stroke-width="0.5" stroke-miterlimit="10"/>
<path d="M56.7541 29.398C57.1158 29.398 57.4091 29.1047 57.4091 28.743C57.4091 28.3812 57.1158 28.088 56.7541 28.088C56.3923 28.088 56.0991 28.3812 56.0991 28.743C56.0991 29.1047 56.3923 29.398 56.7541 29.398Z" fill="black" stroke="white" stroke-width="0.5" stroke-miterlimit="10"/>
<path d="M58 0H0V58H58V0Z" fill="#FA1F26"/>
<path d="M4.381 31.417C4.36696 30.3411 4.68253 29.2867 5.28532 28.3954C5.8881 27.504 6.74923 26.8186 7.75301 26.431C9.22493 25.8788 10.8471 25.8788 12.319 26.431C12.9893 26.6895 13.6012 27.0791 14.119 27.577C14.6205 28.0651 15.0193 28.6485 15.292 29.293C15.8529 30.6531 15.8529 32.1799 15.292 33.54C15.0195 34.1846 14.6206 34.7681 14.119 35.256C13.6013 35.7541 12.9893 36.1437 12.319 36.402C10.8471 36.9542 9.22493 36.9542 7.75301 36.402C6.75086 36.012 5.89133 35.326 5.28891 34.4352C4.68649 33.5444 4.36979 32.4913 4.381 31.416V31.417ZM7.162 31.417C7.15791 31.8045 7.23667 32.1884 7.393 32.543C7.6907 33.2218 8.24406 33.7557 8.93301 34.029C9.64334 34.3093 10.4337 34.3093 11.144 34.029C11.4864 33.8927 11.7996 33.6925 12.067 33.439C12.3349 33.1838 12.5494 32.8778 12.698 32.539C12.8503 32.1831 12.9288 31.8001 12.9288 31.413C12.9288 31.0259 12.8503 30.6428 12.698 30.287C12.5492 29.9482 12.3347 29.6424 12.067 29.387C11.654 29.0022 11.1402 28.7425 10.5855 28.638C10.0307 28.5336 9.45769 28.5887 8.93301 28.797C8.24412 29.0703 7.69079 29.6043 7.393 30.283C7.23564 30.6401 7.15686 31.0268 7.162 31.417Z" fill="white"/>
<path d="M17.392 36.532V26.302H20.051L24.962 32.557V26.302H27.608V36.532H24.962L20.051 30.277V36.532H17.392Z" fill="white"/>
<path d="M35.573 28.554H32.412V30.263H35.397V32.515H32.412V34.279H35.573V36.531H29.753V26.301H35.573V28.554Z" fill="white"/>
<path d="M10.239 43.226C9.98748 43.0171 9.70513 42.8485 9.40199 42.726C9.14428 42.6212 8.8692 42.5655 8.591 42.562C8.3022 42.5492 8.01721 42.6318 7.78 42.797C7.68123 42.8659 7.60092 42.958 7.54616 43.0652C7.4914 43.1725 7.46387 43.2916 7.466 43.412C7.46021 43.5709 7.51652 43.7259 7.62299 43.844C7.7407 43.9669 7.88046 44.0667 8.035 44.138C8.21992 44.2268 8.41233 44.2991 8.60999 44.354C8.82333 44.4153 9.03466 44.482 9.244 44.554C9.94777 44.75 10.5836 45.1369 11.081 45.672C11.4865 46.191 11.6929 46.838 11.663 47.496C11.6697 47.966 11.583 48.4327 11.408 48.869C11.2428 49.2717 10.988 49.6315 10.663 49.921C10.3131 50.2264 9.90484 50.4577 9.463 50.601C8.9415 50.7694 8.39593 50.8511 7.84799 50.843C6.6051 50.844 5.39321 50.4551 4.383 49.731L5.48299 47.665C5.82107 47.9747 6.20492 48.2303 6.62099 48.423C6.96981 48.5827 7.34836 48.6673 7.73199 48.671C8.06898 48.6977 8.40343 48.5947 8.66699 48.383C8.81183 48.2575 8.91234 48.0886 8.9536 47.9014C8.99485 47.7142 8.97465 47.5188 8.896 47.344C8.83442 47.2244 8.74488 47.1215 8.63499 47.044C8.48757 46.9389 8.32726 46.8532 8.158 46.789C7.96133 46.7103 7.72366 46.623 7.44499 46.527C7.11166 46.4223 6.78699 46.307 6.47099 46.181C6.16252 46.0613 5.87547 45.8924 5.62099 45.681C5.36658 45.4634 5.16195 45.1936 5.021 44.89C4.85581 44.5087 4.77758 44.0953 4.79199 43.68C4.78463 43.2245 4.8665 42.772 5.033 42.348C5.18577 41.9642 5.41743 41.6166 5.713 41.328C6.02013 41.0353 6.38536 40.8104 6.785 40.668C7.24012 40.5052 7.7207 40.4253 8.20399 40.432C8.72032 40.4349 9.23427 40.5021 9.73399 40.632C10.2662 40.7676 10.78 40.9673 11.264 41.227L10.239 43.226Z" fill="white"/>
<path d="M18.886 42.873H15.836V44.5179H18.713V46.688H15.836V48.3879H18.886V50.558H13.277V40.699H18.886V42.873Z" fill="white"/>
<path d="M27.826 43.998C27.569 43.6584 27.2363 43.3835 26.8544 43.1951C26.4725 43.0067 26.0518 42.9102 25.626 42.913C25.2601 42.9094 24.8974 42.9805 24.56 43.122C24.2442 43.2537 23.9577 43.4468 23.717 43.69C23.4774 43.9362 23.2885 44.227 23.161 44.546C23.025 44.8868 22.957 45.251 22.961 45.618C22.9562 45.9892 23.0241 46.3578 23.161 46.703C23.2888 47.0236 23.4789 47.3157 23.7202 47.5625C23.9615 47.8093 24.2493 48.0059 24.567 48.141C24.8975 48.2822 25.2536 48.3533 25.613 48.3499C26.0345 48.3426 26.4496 48.2455 26.8307 48.0651C27.2118 47.8847 27.55 47.6253 27.823 47.304V50.338L27.561 50.429C27.2026 50.5591 26.8349 50.6617 26.461 50.736C26.1293 50.8013 25.7921 50.8348 25.454 50.836C24.1078 50.8352 22.8155 50.3071 21.854 49.365C21.3717 48.8881 20.9836 48.3246 20.71 47.704C20.4264 47.0432 20.2795 46.3318 20.2783 45.6127C20.2771 44.8936 20.4216 44.1817 20.703 43.52C21.1128 42.5986 21.7813 41.8159 22.6274 41.2671C23.4734 40.7182 24.4605 40.4267 25.469 40.428C25.858 40.4276 26.2459 40.4692 26.626 40.552C27.0367 40.6444 27.4384 40.7736 27.826 40.938V43.998Z" fill="white"/>
<path d="M29.146 45.632C29.1324 44.5951 29.4364 43.5788 30.0172 42.7197C30.598 41.8606 31.4277 41.1997 32.395 40.8259C33.8135 40.2941 35.3765 40.2941 36.795 40.8259C37.4404 41.0753 38.0296 41.451 38.528 41.9309C39.0116 42.4013 39.3961 42.9637 39.659 43.585C40.1996 44.8958 40.1996 46.3671 39.659 47.6779C39.3962 48.2993 39.0117 48.8616 38.528 49.3319C38.0296 49.8119 37.4404 50.1876 36.795 50.437C35.3766 50.9688 33.8135 50.9688 32.395 50.437C31.4294 50.0609 30.6013 49.3997 30.0209 48.5413C29.4405 47.6829 29.1353 46.6681 29.146 45.632ZM31.827 45.632C31.8231 46.0053 31.8987 46.3751 32.049 46.7169C32.3362 47.3708 32.8693 47.8853 33.533 48.1489C34.0382 48.3523 34.591 48.4068 35.1262 48.306C35.6614 48.2051 36.1565 47.9532 36.553 47.58C36.8105 47.3351 37.0171 47.0418 37.161 46.7169C37.3077 46.3738 37.3833 46.0046 37.3833 45.6314C37.3833 45.2583 37.3077 44.8891 37.161 44.546C37.0171 44.2211 36.8105 43.9278 36.553 43.6829C36.155 43.3122 35.6599 43.062 35.1254 42.9612C34.5908 42.8605 34.0387 42.9135 33.533 43.114C32.8693 43.3776 32.3362 43.8921 32.049 44.546C31.8987 44.8881 31.823 45.2583 31.827 45.632Z" fill="white"/>
<path d="M41.686 50.562V40.7029H44.249L48.982 46.731V40.7029H51.532V50.562H48.982L44.249 44.534V50.562H41.686Z" fill="white"/>
<path d="M53.597 40.703H57.389C58.0406 40.6988 58.6853 40.8371 59.278 41.108C59.8543 41.3697 60.3774 41.7354 60.821 42.187C61.2635 42.6395 61.6161 43.172 61.86 43.756C62.1093 44.3477 62.2384 44.9832 62.2396 45.6253C62.2408 46.2674 62.1141 46.9033 61.867 47.496C61.6256 48.0821 61.2751 48.6169 60.834 49.072C60.3917 49.5266 59.8684 49.8946 59.291 50.157C58.6947 50.4287 58.0462 50.5669 57.391 50.562H53.599L53.597 40.703ZM56.16 48.391H56.748C57.1543 48.398 57.5583 48.327 57.938 48.182C58.2692 48.0539 58.5699 47.8581 58.821 47.607C59.0631 47.3588 59.2501 47.0623 59.37 46.737C59.4991 46.3848 59.5635 46.0121 59.56 45.637C59.562 45.2611 59.4942 44.8881 59.36 44.537C59.2381 44.2063 59.0467 43.9056 58.7986 43.6553C58.5505 43.405 58.2516 43.2109 57.922 43.086C57.5466 42.9418 57.1471 42.8709 56.745 42.877H56.157L56.16 48.391Z" fill="white"/>
</svg>
