<svg width="308" height="337" viewBox="0 0 308 337" fill="none" xmlns="http://www.w3.org/2000/svg">
<path d="M349.574 -12.5128L5.0002 79.8127L257.248 332.061L349.574 -12.5128Z" stroke="#FA1F26" stroke-width="5" stroke-miterlimit="10"/>
<path d="M333.451 3.60968L27.0105 85.713L251.335 310.038L333.451 3.60968Z" stroke="#FA1F26" stroke-width="5" stroke-miterlimit="10"/>
<path d="M317.329 19.7322L49.0459 91.6133L245.447 288.015L317.329 19.7322Z" stroke="#FA1F26" stroke-width="5" stroke-miterlimit="10"/>
<path d="M301.206 35.8547L71.0687 97.5261L239.535 265.992L301.206 35.8547Z" stroke="#FA1F26" stroke-width="5" stroke-miterlimit="10"/>
<path d="M285.084 51.9772L93.0915 103.414L233.634 243.957L285.084 51.9772Z" stroke="#FA1F26" stroke-width="5" stroke-miterlimit="10"/>
<path d="M268.961 68.0997L115.114 109.327L227.734 221.946L268.961 68.0997Z" stroke="#FA1F26" stroke-width="5" stroke-miterlimit="10"/>
<path d="M252.838 84.2223L137.137 115.215L221.834 199.911L252.838 84.2223Z" stroke="#FA1F26" stroke-width="5" stroke-miterlimit="10"/>
<path d="M236.716 100.345L159.16 121.127L215.933 177.901L236.716 100.345Z" stroke="#FA1F26" stroke-width="5" stroke-miterlimit="10"/>
<path d="M220.593 116.467L181.195 127.028L210.033 155.865L220.593 116.467Z" stroke="#FA1F26" stroke-width="5" stroke-miterlimit="10"/>
</svg>
