<svg width="1920" height="2620" viewBox="0 0 1920 2620" fill="none" xmlns="http://www.w3.org/2000/svg">
<path d="M1399.03 2276.13L2002.18 25.201L-248.775 628.343L1399.03 2276.13Z" stroke="#E4E3DD" stroke-width="35" stroke-miterlimit="10"/>
<path d="M1360.48 2132.26L1896.91 130.449L-104.872 666.824L1360.48 2132.26Z" stroke="#E4E3DD" stroke-width="35" stroke-miterlimit="10"/>
<path d="M1321.93 1988.38L1791.56 235.838L38.9496 705.448L1321.93 1988.38Z" stroke="#E4E3DD" stroke-width="35" stroke-miterlimit="10"/>
<path d="M1283.38 1844.51L1686.17 341.115L182.853 743.929L1283.38 1844.51Z" stroke="#E4E3DD" stroke-width="35" stroke-miterlimit="10"/>
<path d="M1244.83 1700.64L1580.93 446.475L326.786 782.522L1244.83 1700.64Z" stroke="#E4E3DD" stroke-width="35" stroke-miterlimit="10"/>
<path d="M1206.28 1556.77L1475.55 551.753L470.578 821.034L1206.28 1556.77Z" stroke="#E4E3DD" stroke-width="35" stroke-miterlimit="10"/>
<path d="M1167.73 1412.9L1370.31 657.112L614.511 859.627L1167.73 1412.9Z" stroke="#E4E3DD" stroke-width="35" stroke-miterlimit="10"/>
<path d="M1129.18 1269.03L1264.92 762.39L758.303 898.138L1129.18 1269.03Z" stroke="#E4E3DD" stroke-width="35" stroke-miterlimit="10"/>
<path d="M1090.63 1125.16L1159.57 867.779L902.236 936.732L1090.63 1125.16Z" stroke="#E4E3DD" stroke-width="35" stroke-miterlimit="10"/>
</svg>
