<svg width="424" height="419" viewBox="0 0 424 419" fill="none" xmlns="http://www.w3.org/2000/svg">
<path fill-rule="evenodd" clip-rule="evenodd" d="M0.693359 418.472C16.286 418.623 31.8718 417.882 47.3536 416.221C61.4189 414.787 75.2518 412.656 88.8909 409.905C279.421 370.9 422.83 202.456 423.089 0.484131H398.368C398.12 171.111 289.306 316.314 137.325 370.692C123.493 375.652 109.311 379.837 94.8194 383.246C65.565 389.756 34.9544 393.631 4.57626 393.631C3.28034 393.631 1.98604 393.625 0.693359 393.612V418.472ZM0.693359 368.721C57.9513 369.336 115.371 356.978 166.851 331.441C179.095 325.435 190.952 318.77 202.383 311.525C305.141 246.196 373.414 131.426 373.686 0.6916L373.685 0.484131H348.964C348.734 122.564 285.013 229.687 189.092 290.678C178.437 297.459 167.355 303.659 155.963 309.239C109.388 332.41 57.0792 344.421 4.61494 344.189C3.30628 344.189 1.99906 344.182 0.693359 344.167V368.721ZM0.693359 319.202C58.3089 320.064 116.091 305.921 165.844 275.954C177.662 269.019 189.015 261.385 199.825 253.055C275.306 194.778 323.972 103.45 324.244 0.730326H324.282L324.282 0.484131H299.561C299.396 81.7439 266.354 155.295 213.038 208.572C204.126 217.446 194.672 225.776 184.714 233.448C133.373 273.126 69.4396 294.824 4.61494 294.824C3.30591 294.824 1.99868 294.816 0.693359 294.799V319.202ZM0.693359 269.575C58.7259 270.846 116.996 254.25 164.061 218.027C175.22 209.851 185.76 200.823 195.524 191.097C244.307 142.353 274.569 75.0869 274.802 0.730278H274.841L274.84 0.484131H250.119C249.995 54.5692 232.372 104.551 202.615 145.065C195.175 155.217 186.961 164.749 178.088 173.622C132.986 218.918 69.0521 246.041 4.61489 245.421C3.30516 245.421 1.99796 245.411 0.693359 245.391V269.575ZM0.693359 220.84C3.31647 220.882 5.94158 220.874 8.56723 220.817C65.1387 219.654 120.548 196.406 160.535 156.108C168.517 148.126 175.918 139.563 182.621 130.457C209.318 94.0732 225.166 49.2423 225.36 0.691552H225.399L225.398 0.484131H200.716C200.594 40.9693 188.202 78.5141 167.084 109.688C160.032 120.073 152.011 129.798 143.138 138.633C106.676 175.094 56.3042 196.406 4.61494 195.979C3.30479 195.979 1.99755 195.967 0.693359 195.941V220.84ZM0.693359 171.497C47.6668 172.63 93.0628 154.494 125.662 121.197C133.412 113.447 140.425 105 146.586 95.8944C164.991 68.7323 175.802 35.9519 175.995 0.6916H176.034L176.033 0.484131H151.274C151.196 27.3701 143.839 52.5169 131.126 74.1182C124.771 84.9676 117.022 94.8869 108.187 103.721C81.0639 130.573 43.0913 147.235 4.61494 146.576C3.30364 146.576 1.99638 146.559 0.693359 146.525V171.497ZM0.693359 122.059C33.9096 123.001 67.1675 110.29 90.7895 86.2461C98.1516 78.9228 104.584 70.6696 109.853 61.6414C120.436 43.6825 126.514 22.7979 126.63 0.484131H101.831C101.715 18.2643 96.8384 34.8867 88.4259 49.1647C84.2025 56.333 79.0878 62.9201 73.2369 68.771C55.103 86.7886 30.3045 97.2505 4.61489 97.1342C3.30091 97.1342 1.99361 97.1083 0.693359 97.057V122.059ZM0.693359 72.3551C20.8872 73.2725 41.5306 66.1477 55.723 51.3346C62.2713 44.825 67.5797 37.0368 71.2995 28.3961C74.9418 19.8716 76.9954 10.5334 77.1116 0.730278H77.1504C77.1501 0.648195 77.1497 0.566146 77.1491 0.484131H52.427C52.2532 13.5324 46.8793 25.3051 38.2866 33.8207C29.6458 42.3839 17.7504 47.6923 4.61494 47.6923C3.29423 47.6923 1.98637 47.639 0.693359 47.5344V72.3551Z" fill="#E4E3DD"/>
</svg>
