<svg width="93" height="45" viewBox="0 0 93 45" fill="none" xmlns="http://www.w3.org/2000/svg">
<path d="M0.379395 11.42C0.379395 9.69998 0.679395 8.17998 1.27939 6.85998C1.87939 5.53998 2.67939 4.43998 3.67939 3.55998C4.63939 2.71998 5.71939 2.07998 6.91939 1.63998C8.15939 1.19998 9.39939 0.97998 10.6394 0.97998C11.8794 0.97998 13.0994 1.19998 14.2994 1.63998C15.5394 2.07998 16.6594 2.71998 17.6594 3.55998C18.6194 4.43998 19.3994 5.53998 19.9994 6.85998C20.5994 8.17998 20.8994 9.69998 20.8994 11.42V33.98C20.8994 35.78 20.5994 37.32 19.9994 38.6C19.3994 39.88 18.6194 40.94 17.6594 41.78C16.6594 42.66 15.5394 43.32 14.2994 43.76C13.0994 44.2 11.8794 44.42 10.6394 44.42C9.39939 44.42 8.15939 44.2 6.91939 43.76C5.71939 43.32 4.63939 42.66 3.67939 41.78C2.67939 40.94 1.87939 39.88 1.27939 38.6C0.679395 37.32 0.379395 35.78 0.379395 33.98V11.42ZM6.49939 33.98C6.49939 35.46 6.89939 36.56 7.69939 37.28C8.53939 37.96 9.51939 38.3 10.6394 38.3C11.7594 38.3 12.7194 37.96 13.5194 37.28C14.3594 36.56 14.7794 35.46 14.7794 33.98V11.42C14.7794 9.93998 14.3594 8.85998 13.5194 8.17998C12.7194 7.45998 11.7594 7.09998 10.6394 7.09998C9.51939 7.09998 8.53939 7.45998 7.69939 8.17998C6.89939 8.85998 6.49939 9.93998 6.49939 11.42V33.98Z" fill="#FA1F26"/>
<path d="M26.0463 44.06V1.33998H31.9263L41.1663 27.08H41.2863V1.33998H47.4063V44.06H41.6463L32.2863 18.38H32.1663V44.06H26.0463Z" fill="#FA1F26"/>
<path d="M52.9464 44.06V1.33998H71.1864V7.09998H59.0664V19.64H69.6264V25.4H59.0664V37.94H71.1864V44.06H52.9464Z" fill="#FA1F26"/>
<path d="M74.3135 44.06V38.3L85.3535 17.48C85.9135 16.44 86.2335 15.54 86.3135 14.78C86.3935 13.98 86.4335 13 86.4335 11.84C86.4335 11.32 86.4135 10.78 86.3735 10.22C86.3735 9.61998 86.2735 9.09998 86.0735 8.65998C85.8735 8.21998 85.5735 7.85998 85.1735 7.57998C84.7735 7.25998 84.1935 7.09998 83.4335 7.09998C82.5135 7.09998 81.7735 7.35998 81.2135 7.87998C80.6935 8.39998 80.4335 9.15998 80.4335 10.16V13.64H74.3135V10.28C74.3135 8.99998 74.5535 7.79998 75.0335 6.67998C75.5135 5.55998 76.1735 4.57998 77.0135 3.73998C77.8135 2.89998 78.7735 2.23998 79.8935 1.75998C81.0135 1.23998 82.2135 0.97998 83.4935 0.97998C85.0935 0.97998 86.4535 1.27998 87.5735 1.87998C88.7335 2.43998 89.6935 3.21998 90.4535 4.21998C91.1735 5.21998 91.6935 6.35998 92.0135 7.63998C92.3735 8.91998 92.5535 10.28 92.5535 11.72C92.5535 12.76 92.5335 13.64 92.4935 14.36C92.4535 15.04 92.3735 15.7 92.2535 16.34C92.1335 16.98 91.9335 17.62 91.6535 18.26C91.3735 18.9 90.9935 19.68 90.5135 20.6L81.5135 37.94H92.5535V44.06H74.3135Z" fill="#FA1F26"/>
</svg>
