<svg width="65" height="65" viewBox="0 0 65 65" fill="none" xmlns="http://www.w3.org/2000/svg">
<path d="M64.6201 32.3904C64.5925 18.0453 55.1321 5.90789 42.1061 1.85658C41.1015 1.54749 40.0804 1.28255 39.0372 1.06729C35.8359 0.410472 32.5463 0.233848 29.3119 0.581576C28.2356 0.691966 27.1758 0.852031 26.1327 1.06729C11.5446 4.05334 0.560844 16.9579 0.549805 32.4235C0.577402 46.7687 10.0378 58.9061 23.0638 62.9574C24.0684 63.2665 25.0895 63.5314 26.1327 63.7467C29.334 64.4035 32.6236 64.5801 35.858 64.2324C36.9343 64.122 37.9941 63.9619 39.0372 63.7467C53.6253 60.7606 64.6091 47.856 64.6201 32.3904ZM42.7463 60.7441C41.6866 61.1249 40.6048 61.445 39.4954 61.7045C37.2544 62.2067 34.9142 62.4993 32.5905 62.4993C31.4038 62.4993 30.2281 62.433 29.0746 62.295C25.6856 61.9032 22.396 60.9262 19.3382 59.4359C18.3391 58.9447 17.3677 58.4038 16.4349 57.8077C8.03976 52.4759 2.46507 43.0982 2.44299 32.4235C2.45403 19.3589 10.7885 8.23711 22.4236 4.0699C23.4833 3.68905 24.5651 3.36892 25.6745 3.1095C27.9155 2.60723 30.2557 2.3147 32.5794 2.3147C33.7661 2.3147 34.9418 2.38093 36.0954 2.51892C39.4843 2.9108 42.7739 3.88775 45.8317 5.37802C46.8308 5.86925 47.8022 6.41016 48.735 7.00627C57.1301 12.3436 62.7048 21.7212 62.7269 32.3959C62.7159 45.4551 54.3814 56.5768 42.7463 60.7441Z" fill="white"/>
<path d="M50.2473 10.4063C49.4415 9.7605 48.597 9.15887 47.7249 8.6014C39.6333 3.35236 28.8096 2.78937 20.1661 7.0725C19.2278 7.53062 18.3226 8.03841 17.445 8.59588C9.5797 13.5965 4.35826 22.3836 4.33618 32.3904C4.34722 41.2989 8.4758 49.2414 14.9281 54.4077C15.7339 55.0535 16.5784 55.6551 17.4505 56.2126C25.5366 61.4616 36.3658 62.0246 45.0038 57.7359C45.9421 57.2778 46.8473 56.77 47.7249 56.2126C55.5902 51.2119 60.8172 42.4249 60.8392 32.418C60.8282 23.5151 56.6941 15.5725 50.2473 10.4063ZM46.7038 54.6174C45.8869 55.1363 45.0425 55.6109 44.1649 56.0415C40.5993 57.8132 36.5921 58.735 32.5794 58.7184C31.5418 58.7184 30.5151 58.6577 29.5051 58.5418C24.6369 57.9954 19.8901 56.0359 16.0982 52.934C15.3476 52.3324 14.63 51.6866 13.9456 51.0077C9.19333 46.2499 6.2404 39.6817 6.22385 32.4235C6.23488 23.0735 11.1141 14.866 18.4606 10.1965C19.2775 9.6777 20.1219 9.20303 20.9995 8.77251C24.5651 7.00075 28.5723 6.07899 32.585 6.09555C33.6226 6.09555 34.6492 6.15627 35.6593 6.27217C40.5275 6.8186 45.2743 8.77803 49.0662 11.88C49.8168 12.4816 50.5344 13.1274 51.2188 13.8063C55.9821 18.5641 58.9295 25.1323 58.9516 32.3904C58.9295 41.7404 54.0558 49.9479 46.7038 54.6174Z" fill="white"/>
<path d="M51.9418 17.4878C51.3016 16.6599 50.6116 15.8761 49.872 15.142C42.36 7.3264 29.4885 5.75334 20.2434 11.3225C19.3382 11.8524 18.4716 12.4375 17.6437 13.0777C11.8648 17.5375 8.13911 24.5307 8.11703 32.3904C8.12255 38.0148 10.0323 43.1976 13.2281 47.3262C13.8683 48.1541 14.5583 48.9379 15.2979 49.672C22.8099 57.4876 35.6814 59.0606 44.9321 53.4915C45.8373 52.9616 46.7038 52.3765 47.5317 51.7363C53.3107 47.2765 57.0363 40.2833 57.0584 32.4235C57.0473 26.7992 55.1431 21.6164 51.9418 17.4878ZM48.5363 48.3362C47.8574 49.0151 47.1343 49.6554 46.3671 50.2405C42.4372 53.2817 37.547 54.9376 32.5794 54.9376C31.5418 54.9376 30.5207 54.8658 29.5161 54.7333C24.67 54.082 20.0723 51.797 16.6226 48.3362C15.9437 47.6573 15.3034 46.9343 14.7128 46.1726C11.7709 42.3697 10.0157 37.6063 9.99918 32.4291C10.0102 26.2031 12.5381 20.5677 16.6226 16.4888C17.3015 15.8099 18.0245 15.1696 18.7917 14.5845C22.7216 11.5433 27.6119 9.88744 32.5794 9.88744C33.6171 9.88744 34.6382 9.9592 35.6428 10.0917C40.4889 10.743 45.0866 13.028 48.5363 16.4888C49.2152 17.1677 49.8555 17.8907 50.446 18.6524C53.3879 22.4553 55.1431 27.2187 55.1597 32.3959C55.1542 38.6164 52.6207 44.2518 48.5363 48.3362Z" fill="white"/>
<path d="M50.9538 22.93C50.4626 21.9807 49.8996 21.081 49.2704 20.2255C42.9561 11.1514 29.1353 9.01536 20.3813 15.7547C19.5258 16.3784 18.72 17.0683 17.9748 17.819C14.2382 21.5501 11.9255 26.6998 11.9034 32.3904C11.9089 35.8125 12.7479 39.0414 14.2216 41.884C14.7128 42.8333 15.2758 43.733 15.905 44.5885C22.2193 53.6626 36.0402 55.7986 44.7941 49.0593C45.6496 48.4356 46.4554 47.7457 47.2006 46.995C50.9373 43.2638 53.2499 38.1141 53.272 32.4235C53.2665 29.0015 52.4275 25.7725 50.9538 22.93ZM47.7415 43.4736C47.173 44.2518 46.5438 44.9804 45.8649 45.6593C42.4152 49.1255 37.5194 51.2009 32.585 51.1567C31.5473 51.1567 30.5317 51.0739 29.5382 50.9083C24.7362 50.1301 20.2875 47.4034 17.4284 43.4736C16.8599 42.6953 16.3466 41.8784 15.8995 41.0174C14.5638 38.4453 13.8021 35.5255 13.7911 32.4235C13.7966 28.2784 15.1489 24.4479 17.4284 21.3404C17.9969 20.5621 18.6262 19.8336 19.305 19.1547C22.7547 15.6884 27.6505 13.6131 32.585 13.6573C33.6226 13.6573 34.6382 13.7401 35.6317 13.9056C40.4337 14.6839 44.8824 17.4105 47.7415 21.3404C48.31 22.1186 48.8233 22.9355 49.2704 23.7966C50.6061 26.3687 51.3678 29.2885 51.3788 32.3904C51.3733 36.5356 50.021 40.3661 47.7415 43.4736Z" fill="white"/>
<path d="M47.5925 24.6686C47.1895 23.8959 46.7314 23.1563 46.2181 22.4609C43.0444 18.0618 37.6739 15.4235 32.2759 15.5394C27.9431 15.6277 23.7041 17.4105 20.6408 20.4904C20.0281 21.1031 19.4651 21.7599 18.9518 22.4553C16.9096 25.2372 15.6953 28.6703 15.6787 32.3849C15.6843 35.1833 16.3687 37.8161 17.5774 40.1398C17.9804 40.9125 18.4385 41.6521 18.9518 42.3476C22.1255 46.7466 27.4905 49.3849 32.8885 49.2635C37.2213 49.1752 41.4603 47.3924 44.5236 44.3125C45.1363 43.6999 45.6993 43.043 46.2126 42.3476C48.2548 39.5658 49.4691 36.1326 49.4856 32.418C49.4856 29.6252 48.8012 26.9924 47.5925 24.6686ZM45.0204 40.769C44.4795 41.5638 43.8668 42.309 43.1879 42.9823C40.395 45.7752 36.5424 47.4034 32.585 47.3703C31.5473 47.3703 30.5372 47.2655 29.5658 47.0668C25.7739 46.2775 22.3021 43.9924 20.1495 40.7635C19.6086 39.9687 19.145 39.1187 18.7641 38.219C18.008 36.4362 17.583 34.4768 17.5774 32.418C17.583 29.3161 18.5323 26.4349 20.1495 24.0394C20.6904 23.2446 21.3031 22.4995 21.982 21.8261C24.7749 19.0332 28.6275 17.405 32.585 17.4381C33.6226 17.4381 34.6327 17.543 35.6041 17.7417C39.396 18.531 42.8622 20.816 45.0204 24.0449C45.5613 24.8398 46.0249 25.6898 46.4058 26.5894C47.1619 28.3722 47.5869 30.3316 47.5925 32.3904C47.5869 35.4924 46.6431 38.3736 45.0204 40.769Z" fill="white"/>
<path d="M44.6671 27.329C44.336 26.5453 43.9275 25.8001 43.4584 25.1047C41.4493 22.1242 38.3032 20.0764 34.6824 19.4858C30.471 18.8014 26.232 20.1979 23.3177 23.1673C22.7271 23.7579 22.1862 24.4092 21.7171 25.1047C20.3096 27.1855 19.4817 29.6914 19.4651 32.3904C19.4706 34.2008 19.8404 35.9229 20.5028 37.4849C20.8339 38.2687 21.2424 39.0138 21.7115 39.7093C23.7206 42.6898 26.8668 44.7375 30.4875 45.3281C34.6989 46.0125 38.9379 44.6161 41.8522 41.6466C42.4428 41.056 42.9837 40.4047 43.4528 39.7093C44.8603 37.6284 45.6882 35.1226 45.7048 32.4235C45.6993 30.6131 45.3295 28.8911 44.6671 27.329ZM42.2717 38.0424C41.7859 38.8703 41.1898 39.632 40.5165 40.3054C38.4411 42.3586 35.5324 43.6336 32.5905 43.5895C31.5583 43.5895 30.5593 43.4515 29.6099 43.1866C26.8171 42.4193 24.3554 40.5482 22.9038 38.0424C22.418 37.2145 22.0317 36.3148 21.7667 35.3654C21.5073 34.4271 21.3638 33.4391 21.3583 32.418C21.3638 30.3537 21.9268 28.4219 22.9038 26.7661C23.3895 25.9381 23.9856 25.1764 24.659 24.5031C26.7343 22.4498 29.6431 21.1748 32.585 21.219C33.6171 21.219 34.6161 21.3569 35.5655 21.6219C38.3583 22.3891 40.82 24.2602 42.2717 26.7661C42.7574 27.594 43.1437 28.4937 43.4087 29.443C43.6681 30.3813 43.8116 31.3693 43.8171 32.3904C43.8061 34.4547 43.2431 36.3865 42.2717 38.0424Z" fill="white"/>
<path d="M41.5817 29.9508C41.361 29.1615 41.0408 28.4164 40.6379 27.7264C39.545 25.8333 37.7954 24.4092 35.72 23.6365C32.3697 22.4222 28.484 23.3109 25.9947 25.8443C25.4317 26.4073 24.9405 27.0365 24.532 27.7264C23.7206 29.1063 23.2515 30.7125 23.246 32.4235C23.2515 33.268 23.3674 34.0849 23.5882 34.8632C23.809 35.6524 24.1291 36.3976 24.532 37.0875C25.6249 38.9807 27.3745 40.4047 29.4499 41.1775C32.8002 42.3917 36.6859 41.5031 39.1752 38.9697C39.7382 38.4067 40.2295 37.7774 40.6379 37.0875C41.4493 35.7076 41.9184 34.1015 41.9239 32.3904C41.9129 31.5459 41.797 30.7291 41.5817 29.9508ZM39.0041 36.1326C38.6785 36.6791 38.2866 37.1869 37.8395 37.6339C36.4541 39.0138 34.5554 39.8141 32.585 39.8031C31.9005 39.8031 31.2382 39.7093 30.609 39.5382C28.7379 39.0414 27.1648 37.7664 26.1658 36.1326C25.8401 35.5862 25.5862 34.9901 25.4096 34.3609C25.2385 33.7427 25.1447 33.0914 25.1392 32.4235C25.1447 31.0602 25.52 29.7797 26.1658 28.6813C26.4914 28.1349 26.8833 27.6271 27.3304 27.18C28.7158 25.8001 30.6145 24.9998 32.585 25.0109C33.2694 25.0109 33.9317 25.1047 34.5609 25.2758C36.432 25.7725 38.0051 27.0476 39.0041 28.6813C39.3298 29.2278 39.5837 29.8239 39.7603 30.4531C39.9314 31.0713 40.0252 31.7226 40.0308 32.3904C40.0197 33.7593 39.6499 35.0343 39.0041 36.1326Z" fill="white"/>
<path d="M37.6905 30.2709C37.409 29.6086 37.0005 29.018 36.4983 28.5157C34.4726 26.3355 30.7028 26.3907 28.6661 28.5157C28.1638 29.0125 27.7554 29.6086 27.4739 30.2709C27.1979 30.9222 27.0379 31.6398 27.0268 32.3904C27.0323 33.1521 27.1869 33.8807 27.4739 34.543C27.7554 35.2054 28.1638 35.796 28.6661 36.2982C30.6918 38.4784 34.4616 38.4232 36.4983 36.2982C37.0005 35.8015 37.409 35.2054 37.6905 34.543C37.9665 33.8917 38.1265 33.1742 38.1376 32.4235C38.132 31.6618 37.9775 30.9333 37.6905 30.2709ZM35.1626 34.957C34.5002 35.6138 33.5895 36.0167 32.585 36.0167C31.5804 36.0167 30.6642 35.6138 30.0073 34.957C29.3505 34.3057 28.9421 33.4115 28.9255 32.4235C28.9366 31.419 29.345 30.5138 30.0073 29.857C30.6697 29.2002 31.5804 28.7972 32.585 28.7972C33.5895 28.7972 34.5057 29.2002 35.1626 29.857C35.8194 30.5083 36.2278 31.4024 36.2444 32.3904C36.2389 33.395 35.8249 34.3002 35.1626 34.957Z" fill="white"/>
</svg>
