<svg width="23" height="23" viewBox="0 0 23 23" fill="none" xmlns="http://www.w3.org/2000/svg">
<path d="M21.091 0.494507H1.51074C1.18982 0.494507 0.882049 0.621991 0.655126 0.848913C0.428204 1.07584 0.30072 1.38361 0.30072 1.70452V21.2848C0.30072 21.4437 0.332018 21.6011 0.392827 21.7479C0.453636 21.8947 0.542766 22.0281 0.655126 22.1404C0.767487 22.2528 0.900878 22.3419 1.04768 22.4027C1.19449 22.4635 1.35184 22.4948 1.51074 22.4948H12.0489V13.9697H9.18885V10.6697H12.0489V8.19462C11.9896 7.61354 12.0582 7.02654 12.2499 6.47478C12.4415 5.92303 12.7515 5.41988 13.1582 5.00062C13.5649 4.58137 14.0584 4.25617 14.604 4.04782C15.1497 3.83947 15.7343 3.75303 16.317 3.79455C17.1731 3.78929 18.0289 3.83336 18.88 3.92656V6.8966H17.131C15.7449 6.8966 15.4809 7.55661 15.4809 8.51362V10.6367H18.781L18.352 13.9367H15.4809V22.4948H21.091C21.2499 22.4948 21.4073 22.4635 21.5541 22.4027C21.7009 22.3419 21.8343 22.2528 21.9466 22.1404C22.059 22.0281 22.1481 21.8947 22.2089 21.7479C22.2697 21.6011 22.301 21.4437 22.301 21.2848V1.70452C22.301 1.54562 22.2697 1.38828 22.2089 1.24147C22.1481 1.09466 22.059 0.961273 21.9466 0.848913C21.8343 0.736552 21.7009 0.647423 21.5541 0.586614C21.4073 0.525805 21.2499 0.494507 21.091 0.494507Z" fill="#4267B2"/>
</svg>
