<svg width="379" height="255" viewBox="0 0 379 255" fill="none" xmlns="http://www.w3.org/2000/svg">
<path d="M504.763 250.756C504.553 138.398 430.091 43.3451 327.595 11.6376C319.705 9.19861 311.652 7.13124 303.435 5.45876C278.249 0.325184 252.339 -1.06855 226.896 1.67246C218.423 2.53193 210.089 3.80951 201.873 5.45876C87.0517 28.8502 0.661634 129.896 0.544922 251.011C0.755003 363.369 75.2171 458.422 177.713 490.129C185.603 492.568 193.656 494.636 201.873 496.308C227.059 501.442 252.969 502.835 278.412 500.118C286.886 499.258 295.219 497.98 303.435 496.331C418.256 472.94 504.67 371.894 504.763 250.756ZM332.613 472.824C324.28 475.797 315.737 478.306 307.007 480.35C289.383 484.252 270.943 486.575 252.642 486.575C243.282 486.575 234.062 486.041 224.982 484.996C198.325 481.929 172.415 474.264 148.349 462.603C140.482 458.77 132.849 454.496 125.52 449.85C59.461 408.038 15.5774 334.635 15.414 251.011C15.5074 148.688 81.0761 61.5797 172.671 28.9432C181.005 25.9699 189.548 23.4611 198.278 21.417C215.902 17.5145 234.342 15.1917 252.642 15.1917C262.003 15.1917 271.223 15.7259 280.303 16.7712C306.96 19.8374 332.87 27.503 356.936 39.1639C364.802 42.9966 372.435 47.2707 379.765 51.9165C445.824 93.7285 489.707 167.132 489.871 250.756C489.777 353.102 424.209 440.21 332.613 472.824Z" fill="#FA1F26"/>
<path d="M391.646 78.56C385.297 73.4961 378.668 68.7807 371.782 64.4136C308.127 23.3218 222.928 18.9083 154.931 52.474C147.555 56.0745 140.412 60.0698 133.526 64.4136C71.6224 103.578 30.4931 172.381 30.3297 250.756C30.3998 320.512 62.9157 382.719 113.685 423.207C120.034 428.271 126.664 432.986 133.55 437.353C197.204 478.445 282.404 482.859 350.4 449.293C357.776 445.692 364.919 441.697 371.805 437.353C433.709 398.189 474.838 329.385 475.002 251.011C474.932 181.278 442.416 119.071 391.646 78.56ZM363.799 424.856C357.38 428.921 350.704 432.638 343.841 435.983C315.783 449.874 284.271 457.074 252.666 456.935C244.496 456.935 236.419 456.471 228.483 455.541C190.178 451.244 152.83 435.913 122.976 411.639C117.047 406.923 111.398 401.883 106.029 396.54C68.5412 359.281 45.3155 307.829 45.1755 250.988C45.2688 177.771 83.667 113.473 141.486 76.8875C147.905 72.8225 154.581 69.1059 161.444 65.7609C189.501 51.87 221.013 44.6691 252.619 44.8085C260.789 44.8085 268.865 45.273 276.802 46.2022C315.107 50.4995 352.454 65.8306 382.309 90.1048C388.238 94.8202 393.887 99.8609 399.256 105.204C436.744 142.463 459.969 193.915 460.109 250.756C460.016 323.996 421.618 388.271 363.799 424.856Z" fill="#FA1F26"/>
<path d="M405.021 134.054C399.979 127.596 394.541 121.441 388.752 115.68C329.602 54.4484 228.296 42.1371 155.538 85.7842C148.419 89.9422 141.579 94.5182 135.067 99.5125C89.596 134.449 60.278 189.199 60.1146 250.779H60.0912C60.1613 294.844 75.1471 335.402 100.31 367.736C105.352 374.194 110.791 380.35 116.58 386.11C175.706 447.342 277.012 459.653 349.793 416.029C356.913 411.871 363.752 407.295 370.265 402.301C415.735 367.365 445.053 312.614 445.217 251.034H445.24C445.17 206.969 430.184 166.388 405.021 134.054ZM378.224 375.634C372.856 380.953 367.16 385.948 361.161 390.547C330.232 414.333 291.717 427.342 252.666 427.342C244.496 427.342 236.443 426.784 228.576 425.739C190.412 420.628 154.231 402.742 127.107 375.634C121.738 370.315 116.743 364.647 112.098 358.677C88.9424 328.898 75.1004 291.569 74.9837 251.034C75.0537 202.254 94.9647 158.119 127.107 126.179C132.476 120.86 138.171 115.866 144.17 111.266C175.099 87.4799 213.614 74.4717 252.666 74.4717C260.836 74.4717 268.889 75.0292 276.755 76.0745C314.92 81.1849 351.1 99.0711 378.224 126.179C383.593 131.499 388.588 137.166 393.233 143.136C416.389 172.916 430.231 210.244 430.348 250.779C430.278 299.536 410.367 343.671 378.224 375.634Z" fill="#FA1F26"/>
<path d="M397.202 176.679C393.327 169.269 388.892 162.184 383.966 155.494C334.271 84.4369 225.495 67.7121 156.589 120.488C149.866 125.389 143.517 130.802 137.635 136.632C108.247 165.854 90.0162 206.179 89.8761 250.756H89.8528C89.8994 277.562 96.482 302.835 108.106 325.111C111.981 332.521 116.416 339.606 121.342 346.296C171.037 417.353 279.813 434.078 348.72 381.302C355.442 376.401 361.791 370.988 367.674 365.158C397.062 335.936 415.292 295.611 415.432 251.034H415.455C415.409 224.205 408.826 198.932 397.202 176.679ZM371.945 337.562C367.463 343.648 362.515 349.362 357.169 354.682C329.999 381.836 291.484 398.096 252.666 397.725C244.496 397.725 236.489 397.074 228.693 395.797C190.878 389.711 155.865 368.34 133.363 337.562C128.881 331.476 124.843 325.042 121.318 318.305C110.791 298.166 104.815 275.285 104.745 251.011C104.792 218.537 115.413 188.525 133.363 164.205C137.845 158.119 142.793 152.405 148.139 147.085C175.309 119.931 213.824 103.67 252.642 104.042C260.812 104.042 268.819 104.692 276.615 105.97C314.43 112.056 349.443 133.427 371.945 164.205C376.427 170.291 380.465 176.725 383.99 183.462C394.517 203.601 400.493 226.481 400.563 250.756C400.516 283.23 389.895 313.241 371.945 337.562Z" fill="#FA1F26"/>
<path d="M370.778 190.291C367.604 184.228 363.985 178.444 359.947 172.985C334.994 138.56 292.745 117.886 250.261 118.816C216.182 119.512 182.802 133.45 158.689 157.608C153.881 162.393 149.422 167.527 145.384 172.985C129.301 194.797 119.754 221.673 119.638 250.779H119.614C119.661 272.684 125.03 293.334 134.53 311.499C137.705 317.562 141.323 323.346 145.361 328.805C170.314 363.23 212.564 383.904 255.047 382.974C289.127 382.277 322.506 368.34 346.595 344.182C351.404 339.397 355.862 334.263 359.901 328.805C375.983 306.993 385.53 280.117 385.647 251.011H385.671C385.647 229.13 380.255 208.479 370.778 190.291ZM350.54 316.354C346.292 322.579 341.46 328.41 336.115 333.706C314.15 355.564 283.804 368.34 252.666 368.085C244.519 368.085 236.559 367.272 228.88 365.692C199.048 359.513 171.738 341.627 154.768 316.331C150.52 310.105 146.855 303.439 143.867 296.4C137.915 282.44 134.577 267.086 134.507 250.988C134.553 226.69 142.023 204.112 154.768 185.39C159.016 179.164 163.848 173.334 169.193 168.038C191.159 146.179 221.504 133.403 252.642 133.659C260.789 133.659 268.749 134.472 276.428 136.051C306.26 142.23 333.57 160.117 350.54 185.413C354.789 191.638 358.453 198.305 361.441 205.343C367.393 219.304 370.731 234.658 370.801 250.756C370.755 275.076 363.285 297.631 350.54 316.354Z" fill="#FA1F26"/>
<path d="M347.739 211.104C345.125 204.972 341.927 199.141 338.215 193.706C322.389 170.361 297.646 154.333 269.169 149.687C236.023 144.344 202.643 155.262 179.744 178.537C175.076 183.183 170.851 188.247 167.139 193.706C156.052 209.989 149.539 229.641 149.422 250.779H149.399C149.446 264.949 152.34 278.421 157.592 290.686C160.207 296.818 163.405 302.649 167.116 308.085C182.942 331.43 207.685 347.457 236.163 352.103C269.309 357.446 302.688 346.528 325.587 323.253C330.256 318.607 334.481 313.543 338.192 308.085C349.28 291.801 355.792 272.149 355.909 251.011H355.932C355.886 236.865 352.968 223.369 347.739 211.104ZM328.879 295.03C325.05 301.534 320.382 307.481 315.06 312.777C298.72 328.874 275.845 338.863 252.666 338.468C244.543 338.468 236.676 337.376 229.207 335.332C207.218 329.316 187.844 314.681 176.43 295.03C172.601 288.526 169.567 281.511 167.489 274.077C165.435 266.737 164.338 259.002 164.292 251.011C164.338 234.867 168.75 219.745 176.43 206.737C180.258 200.233 184.926 194.286 190.248 188.99C206.588 172.892 229.463 162.904 252.642 163.299C260.766 163.299 268.632 164.391 276.101 166.435C298.09 172.451 317.464 187.085 328.879 206.737C332.707 213.241 335.741 220.256 337.819 227.689C339.873 235.03 340.97 242.765 341.017 250.756C340.993 266.923 336.558 282.045 328.879 295.03Z" fill="#FA1F26"/>
<path d="M323.463 231.638C321.736 225.459 319.215 219.629 316.04 214.217C307.45 199.397 293.678 188.247 277.339 182.207C250.962 172.683 220.383 179.652 200.799 199.489C196.364 203.88 192.489 208.827 189.315 214.24C182.919 225.041 179.254 237.608 179.207 251.034H179.231C179.277 257.655 180.211 264.066 181.915 270.152C183.642 276.331 186.163 282.161 189.338 287.573C197.928 302.393 211.7 313.543 228.04 319.583C254.416 329.107 284.995 322.138 304.579 302.3C309.014 297.91 312.889 292.962 316.064 287.55C322.459 276.749 326.124 264.182 326.171 250.756H326.147C326.077 244.135 325.167 237.724 323.463 231.638ZM303.155 280.07C300.611 284.368 297.53 288.317 294.005 291.824C283.081 302.626 268.142 308.897 252.666 308.828C247.274 308.828 242.068 308.108 237.12 306.76C222.391 302.858 210.019 292.87 202.153 280.094C199.609 275.796 197.601 271.151 196.224 266.226C194.87 261.394 194.123 256.307 194.076 251.034C194.123 240.326 197.064 230.314 202.153 221.719C204.697 217.422 207.778 213.473 211.303 209.966C222.227 199.164 237.166 192.892 252.642 192.962C258.034 192.962 263.24 193.682 268.188 195.03C282.917 198.932 295.289 208.92 303.155 221.696C305.7 225.994 307.707 230.639 309.084 235.564C310.438 240.396 311.185 245.483 311.232 250.756C311.185 261.464 308.244 271.476 303.155 280.07Z" fill="#FA1F26"/>
<path d="M292.861 234.193C290.644 229.013 287.422 224.368 283.478 220.465C267.511 203.369 237.867 203.833 221.854 220.465C217.909 224.368 214.711 229.037 212.47 234.217C210.276 239.327 209.039 244.925 208.969 250.802H208.945C208.992 256.772 210.229 262.463 212.447 267.643C214.664 272.823 217.886 277.469 221.83 281.371C237.797 298.468 267.441 298.003 283.454 281.371C287.399 277.469 290.597 272.8 292.838 267.62C295.032 262.509 296.269 256.911 296.339 251.034H296.363C296.339 245.041 295.079 239.35 292.861 234.193ZM272.95 270.872C267.745 276.005 260.579 279.188 252.666 279.188C244.729 279.188 237.563 276.005 232.358 270.872C227.199 265.785 223.978 258.793 223.838 251.011C223.908 243.137 227.153 236.029 232.358 230.895C237.563 225.761 244.729 222.579 252.642 222.579C260.579 222.579 267.745 225.761 272.95 230.895C278.109 235.982 281.33 242.974 281.47 250.756C281.4 258.63 278.156 265.738 272.95 270.872Z" fill="#FA1F26"/>
</svg>
